<?xml version="1.0" encoding="utf-8"?>
<!-- Generator: Adobe Illustrator 19.2.1, SVG Export Plug-In . SVG Version: 6.00 Build 0)  -->
<svg version="1.1" id="Layer_1" xmlns="http://www.w3.org/2000/svg" xmlns:xlink="http://www.w3.org/1999/xlink" x="0px" y="0px"
	 viewBox="0 0 53.7 22" style="enable-background:new 0 0 53.7 22;" xml:space="preserve">
<style type="text/css">
	.st0{fill:#333333;}
</style>
<g>
	<path class="st0" d="M5.4,20.2l-0.8,0.7c-2.9-2.4-4.4-5.8-4.4-9.7c0-3.9,1.5-7.4,4.4-9.7l0.8,0.7c-2.3,2.9-2.8,6.1-2.8,9
		C2.5,14.1,3.1,17.3,5.4,20.2z"/>
	<path class="st0" d="M24.7,2.1l0.8-0.7c2.9,2.4,4.4,5.8,4.4,9.7c0,3.9-1.5,7.4-4.4,9.7l-0.8-0.7c2.3-2.9,2.8-6.1,2.8-9
		C27.6,8.2,27,5,24.7,2.1z"/>
	<path class="st0" d="M45.2,3.9c-1.7,4.7-5.6,8-10.1,10.2l-0.8-0.7c3.4-2.2,6.1-5.2,7.5-8.1c-0.9,0-1.8,0.1-2.7,0.2
		c-0.5,0.1-0.8,0.2-1,0.5c-1-0.3-2.1-0.9-3-1.4l0.3-0.9c0.9,0.2,1.9,0.4,2.8,0.4c0.9,0,2,0,3-0.1c0.7-0.1,1-0.2,1.3-0.5L45.2,3.9z
		 M41.9,15c-0.4,0-0.8,0.2-1,0.5c-1-0.3-2.1-0.9-3-1.4l0.4-0.9c0.8,0.2,1.7,0.4,2.7,0.4c1.4,0,3.7,0,5-0.1c0.6,0,1-0.2,1.3-0.5
		l2.4,0.4c-0.1,0.5-0.1,0.9-0.1,1.4l-0.1,2.5c0,1.3-0.2,2.3-0.5,3.6h-1.8c0-0.7,0-1.6,0-2.4v-3.8C45.4,14.8,43.6,14.9,41.9,15z
		 M49.7,1.8c-0.1,0.9-0.1,2-0.1,3.3v2.7C50.4,7.7,50.8,7.5,51,7l2.5,0.4l-0.3,1.8h-3.7c-0.1,1.1-0.3,2.2-0.5,3.1h-1.8
		c0-0.8,0-1.7,0-2.4V3.7c0-0.8-0.9-1.5-2.2-1.6L45.3,1L49.7,1.8z"/>
</g>
</svg>
