<?xml version="1.0" encoding="utf-8"?>
<!-- Generator: Adobe Illustrator 19.1.0, SVG Export Plug-In . SVG Version: 6.00 Build 0)  -->
<svg version="1.1" id="Layer_1" xmlns="http://www.w3.org/2000/svg" xmlns:xlink="http://www.w3.org/1999/xlink" x="0px" y="0px"
	 viewBox="-372 390 97 22" style="enable-background:new -372 390 97 22;" xml:space="preserve">
<g>
	<path d="M-371.7,407.6l2.9-11.4c0.1-0.3,0.1-0.6,0.2-0.8c0.1-0.3,0-0.6-0.1-0.8c-0.1-0.2-0.4-0.3-0.8-0.3l0.2-0.4h5.4l-0.2,0.4
		h-0.3c-0.4,0-0.7,0.1-0.9,0.3c-0.3,0.2-0.5,0.7-0.6,1.3l-1.7,6.7l5-5.5l0.3-1.3c0.1-0.3,0.1-0.5,0.1-0.6c0.1-0.3,0-0.6-0.1-0.7
		c-0.1-0.2-0.4-0.3-0.8-0.3l0.2-0.4h5.4l-0.2,0.4c-0.5,0-0.8,0.1-1.1,0.3c-0.3,0.2-0.5,0.7-0.6,1.3l-1.7,6.7l4.8-5.3
		c0.8-0.9,1.3-1.5,1.6-1.9c0.1-0.2,0.2-0.4,0.3-0.6c0-0.1,0-0.3-0.1-0.4c-0.1-0.1-0.4-0.2-0.8-0.2l0.2-0.4h3.5l-0.2,0.4
		c-0.3,0.1-0.6,0.2-0.9,0.3c-0.3,0.2-0.8,0.7-1.4,1.3l-10.5,11.6h-0.6l2.3-9l-8.1,9H-371.7z"/>
	<path d="M-347.4,393.7l-4.1,8.8c1.1-1.3,1.9-2.2,2.4-2.6c0.7-0.7,1.3-1.1,1.8-1.3c0.5-0.2,0.9-0.3,1.3-0.3c0.3,0,0.6,0.1,0.8,0.4
		c0.2,0.3,0.3,0.6,0.2,1c-0.1,0.4-0.2,0.8-0.5,1.3l-2,4.2c-0.2,0.4-0.3,0.6-0.3,0.7c0,0.1,0,0.1,0,0.2c0,0,0.1,0.1,0.1,0.1
		c0.1,0,0.2,0,0.3-0.1c0.2-0.2,0.5-0.4,0.8-0.8c0.1-0.1,0.2-0.2,0.4-0.4l0.3,0.2c-0.7,0.9-1.4,1.6-1.9,1.9c-0.6,0.3-1.1,0.5-1.5,0.5
		c-0.4,0-0.7-0.1-0.9-0.3c-0.2-0.2-0.3-0.5-0.2-0.8c0.1-0.3,0.2-0.7,0.5-1.2l1.9-4.2c0.1-0.3,0.2-0.5,0.2-0.6c0-0.1,0-0.1-0.1-0.2
		c0-0.1-0.1-0.1-0.2-0.1c-0.2,0-0.6,0.2-1.1,0.6c-1,0.8-2.1,2.1-3.2,3.8l-1.4,2.9h-2.4l5.2-11.1c0.2-0.5,0.3-0.8,0.4-1
		c0-0.2,0-0.3-0.1-0.4c-0.1-0.1-0.4-0.2-0.8-0.2l0.1-0.4l3.4-0.6H-347.4z"/>
	<path d="M-338.6,398.2l-3.2,7c-0.2,0.4-0.3,0.7-0.3,0.8c0,0.1,0,0.1,0.1,0.2c0,0.1,0.1,0.1,0.2,0.1c0.1,0,0.2,0,0.4-0.1
		c0.3-0.2,0.8-0.7,1.3-1.3l0.3,0.2c-1.3,1.7-2.5,2.6-3.6,2.6c-0.4,0-0.7-0.1-1-0.4c-0.2-0.2-0.3-0.5-0.2-0.9c0-0.2,0.2-0.5,0.3-0.9
		l2.2-4.7c0.2-0.5,0.3-0.8,0.4-1c0-0.1,0-0.3-0.1-0.4c-0.1-0.1-0.3-0.2-0.5-0.2c-0.1,0-0.2,0-0.4,0l0.2-0.4l3.4-0.5H-338.6z
		 M-338.4,393.7c0.4,0,0.7,0.1,0.9,0.4c0.2,0.3,0.3,0.6,0.2,1c-0.1,0.4-0.3,0.7-0.6,1c-0.3,0.3-0.7,0.4-1.1,0.4
		c-0.4,0-0.7-0.1-0.9-0.4c-0.2-0.3-0.3-0.6-0.2-1c0.1-0.4,0.3-0.7,0.6-1C-339.1,393.8-338.8,393.7-338.4,393.7z"/>
	<path d="M-331.9,395.8l-1.3,2.7h1.3l-0.5,1.1h-1.3l-2.6,5.7c-0.2,0.4-0.3,0.6-0.3,0.8c0,0.1,0,0.2,0,0.2c0,0.1,0.1,0.1,0.2,0.1
		c0.1,0,0.2,0,0.4-0.1c0.3-0.2,0.8-0.6,1.3-1.2l0.3,0.2c-0.6,0.8-1.2,1.4-1.8,1.7c-0.6,0.4-1.2,0.5-1.7,0.5c-0.4,0-0.8-0.1-1-0.3
		c-0.2-0.2-0.3-0.5-0.2-0.9c0.1-0.4,0.2-0.9,0.5-1.5l2.5-5.3h-1.3l0.3-0.7c0.9-0.3,1.7-0.7,2.3-1.1c0.6-0.4,1.5-1.1,2.4-2H-331.9z"
		/>
	<path d="M-330.3,403.6c-0.1,0.4-0.2,0.8-0.3,1c-0.1,0.5,0,0.9,0.2,1.2c0.2,0.3,0.6,0.4,1.1,0.4c0.5,0,0.9-0.1,1.4-0.3
		c0.5-0.2,1.1-0.6,1.8-1.2l0.2,0.3c-0.9,0.9-1.8,1.6-2.5,1.9c-0.8,0.4-1.6,0.6-2.5,0.6c-1.1,0-1.8-0.3-2.1-0.8
		c-0.3-0.5-0.4-1.1-0.3-1.8c0.2-1.1,0.7-2.1,1.5-3.2c0.8-1.1,1.8-1.9,3-2.6c1.2-0.6,2.3-1,3.4-1c0.5,0,0.9,0.1,1.2,0.4
		c0.2,0.3,0.3,0.6,0.2,1c-0.1,0.5-0.3,0.9-0.7,1.4c-0.5,0.6-1.1,1.1-1.7,1.5c-0.6,0.4-1.3,0.7-2.1,0.9
		C-328.9,403.4-329.5,403.5-330.3,403.6z M-330.2,403.1c0.6-0.1,1.1-0.2,1.4-0.3s0.7-0.4,1.1-0.7c0.4-0.3,0.7-0.7,1-1.2
		c0.3-0.5,0.5-1,0.6-1.4c0-0.2,0-0.3-0.1-0.4c-0.1-0.1-0.2-0.2-0.4-0.2c-0.3,0-0.7,0.2-1.2,0.7
		C-328.6,400.3-329.4,401.5-330.2,403.1z"/>
	<path d="M-318,407.6l2.9-11.4c0.1-0.3,0.1-0.6,0.2-0.8c0.1-0.3,0-0.6-0.1-0.8c-0.1-0.2-0.4-0.3-0.8-0.3l0.2-0.4h5.4l-0.2,0.4h-0.3
		c-0.4,0-0.7,0.1-0.9,0.3c-0.3,0.2-0.5,0.7-0.6,1.3l-1.7,6.7l5-5.5l0.3-1.3c0.1-0.3,0.1-0.5,0.1-0.6c0.1-0.3,0-0.6-0.1-0.7
		c-0.1-0.2-0.4-0.3-0.8-0.3l0.2-0.4h5.4l-0.2,0.4c-0.5,0-0.8,0.1-1.1,0.3c-0.3,0.2-0.5,0.7-0.6,1.3l-1.7,6.7l4.8-5.3
		c0.8-0.9,1.3-1.5,1.6-1.9c0.1-0.2,0.2-0.4,0.3-0.6c0-0.1,0-0.3-0.1-0.4c-0.1-0.1-0.4-0.2-0.8-0.2l0.2-0.4h3.5l-0.2,0.4
		c-0.3,0.1-0.6,0.2-0.9,0.3c-0.3,0.2-0.8,0.7-1.4,1.3l-10.5,11.6h-0.6l2.3-9l-8.1,9H-318z"/>
	<path d="M-293,398.3l-3,6.5l-0.3,0.8c0,0.1-0.1,0.2-0.1,0.2c0,0.1,0,0.1,0,0.2c0,0.1,0.1,0.1,0.2,0.1c0.1,0,0.3-0.1,0.6-0.3
		c0.1-0.1,0.4-0.4,0.9-0.9l0.3,0.2c-0.6,0.8-1.2,1.5-1.8,1.9c-0.6,0.4-1.2,0.6-1.8,0.6c-0.4,0-0.6-0.1-0.8-0.3
		c-0.2-0.2-0.2-0.4-0.2-0.7c0-0.3,0.2-0.7,0.6-1.4l0.4-0.8c-1,1.3-1.9,2.2-2.7,2.8c-0.5,0.3-0.9,0.5-1.4,0.5c-0.6,0-1-0.2-1.2-0.7
		c-0.2-0.5-0.2-1-0.1-1.7c0.2-0.9,0.6-2,1.4-3.2s1.7-2.2,2.7-2.9c0.9-0.6,1.6-0.9,2.3-0.9c0.4,0,0.6,0.1,0.8,0.3
		c0.2,0.2,0.3,0.6,0.3,1.2l0.6-1.2L-293,398.3z M-296.5,400.2c0.1-0.5,0.1-0.9,0-1.1c-0.1-0.2-0.2-0.2-0.4-0.2s-0.4,0.1-0.7,0.3
		c-0.5,0.4-1.1,1.2-1.8,2.5c-0.7,1.2-1.2,2.3-1.3,3.2c-0.1,0.3,0,0.6,0,0.7s0.2,0.2,0.3,0.2c0.3,0,0.6-0.2,1-0.5
		c0.5-0.5,1-1.1,1.5-1.8C-297.2,402.2-296.7,401.1-296.5,400.2z"/>
	<path d="M-291.5,407.5h-0.4c0.1-0.5,0.2-0.9,0.2-1.2c0.1-0.7,0.3-1.8,0.4-3.2c0.1-1.4,0.2-2.3,0.1-2.8c0-0.3-0.2-0.6-0.3-0.8
		c-0.1-0.1-0.3-0.2-0.5-0.2c-0.1,0-0.2,0-0.4,0l0.1-0.4l3.4-0.9c0.3,1.8,0.3,4.1-0.3,6.8c1.1-0.9,1.9-1.7,2.4-2.2
		c0.5-0.6,0.7-1,0.8-1.4c0.1-0.3,0-0.6-0.2-0.9c-0.2-0.3-0.3-0.5-0.3-0.7c0-0.1,0-0.3,0-0.4c0.1-0.3,0.2-0.6,0.5-0.9
		c0.3-0.2,0.6-0.3,0.9-0.3c0.4,0,0.6,0.1,0.8,0.3c0.2,0.3,0.3,0.7,0.2,1.1c-0.1,0.5-0.2,0.9-0.5,1.3c-0.2,0.4-0.6,0.9-1.1,1.5
		c-0.5,0.6-1,1.1-1.6,1.6C-288.2,405-289.6,406.2-291.5,407.5z"/>
	<path d="M-281.5,403.6c-0.1,0.4-0.2,0.8-0.3,1c-0.1,0.5,0,0.9,0.2,1.2c0.2,0.3,0.6,0.4,1.1,0.4c0.5,0,0.9-0.1,1.4-0.3
		c0.5-0.2,1.1-0.6,1.8-1.2l0.2,0.3c-0.9,0.9-1.8,1.6-2.5,1.9c-0.8,0.4-1.6,0.6-2.5,0.6c-1.1,0-1.8-0.3-2.1-0.8
		c-0.3-0.5-0.4-1.1-0.3-1.8c0.2-1.1,0.7-2.1,1.5-3.2c0.8-1.1,1.8-1.9,3-2.6c1.2-0.6,2.3-1,3.4-1c0.5,0,0.9,0.1,1.2,0.4
		c0.2,0.3,0.3,0.6,0.2,1c-0.1,0.5-0.3,0.9-0.7,1.4c-0.5,0.6-1.1,1.1-1.7,1.5c-0.6,0.4-1.3,0.7-2.1,0.9
		C-280,403.4-280.7,403.5-281.5,403.6z M-281.3,403.1c0.6-0.1,1.1-0.2,1.4-0.3s0.7-0.4,1.1-0.7c0.4-0.3,0.7-0.7,1-1.2
		c0.3-0.5,0.5-1,0.6-1.4c0-0.2,0-0.3-0.1-0.4c-0.1-0.1-0.2-0.2-0.4-0.2c-0.3,0-0.7,0.2-1.2,0.7
		C-279.8,400.3-280.6,401.5-281.3,403.1z"/>
</g>
</svg>
